HIERARCHY
ROOT Hips
{
	OFFSET 0.00 0.00 0.00
	CHANNELS 6 Xposition Yposition Zposition Xrotation Yrotation Zrotation
	JOINT Spine
	{
		OFFSET 0.00000 1.15266 1.72900
		CHANNELS 3 Xrotation Yrotation Zrotation
		JOINT Spine1
		{
			OFFSET 0.00000 0.40032 2.27031
			CHANNELS 3 Xrotation Yrotation Zrotation
			JOINT Spine2
			{
				OFFSET 0.00000 0.20092 2.29656
				CHANNELS 3 Xrotation Yrotation Zrotation
				JOINT Spine3
				{
					OFFSET 0.00000 0.00000 2.30533
					CHANNELS 3 Xrotation Yrotation Zrotation
					JOINT Neck
					{
						OFFSET 0.00000 -0.86449 6.05149
						CHANNELS 3 Xrotation Yrotation Zrotation
						JOINT Head
						{
							OFFSET 0.00000 -0.55043 3.12167
							CHANNELS 3 Xrotation Yrotation Zrotation
							End Site
							{
								OFFSET 0.00000 0.00000 3.73175
							}
						}
					}
					JOINT RightShoulder
					{
						OFFSET -0.78828 -1.31380 4.25672
						CHANNELS 3 Xrotation Yrotation Zrotation
						JOINT RightArm
						{
							OFFSET -3.91513 0.00000 0.00000
							CHANNELS 3 Xrotation Yrotation Zrotation
							JOINT RightForeArm
							{
								OFFSET -6.91491 0.00000 0.00000
								CHANNELS 3 Xrotation Yrotation Zrotation
								JOINT RightHand
								{
									OFFSET -6.09622 0.00000 0.00000
									CHANNELS 3 Xrotation Yrotation Zrotation
									JOINT RightHandEnd
									{
										OFFSET -1.74995 0.00000 0.00000
										CHANNELS 3 Xrotation Yrotation Zrotation
										End Site
										{
											OFFSET -1.74995 0.00000 0.00000
										}
									}
									JOINT RightHandThumb1
									{
										OFFSET -0.69998 -1.16663 -0.46665
										CHANNELS 3 Yrotation Xrotation Zrotation
										End Site
										{
											OFFSET -1.69032 -0.45292 0.00000
										}
									}
								}
							}
						}
					}
					JOINT LeftShoulder
					{
						OFFSET 0.78828 -1.31380 4.25672
						CHANNELS 3 Xrotation Yrotation Zrotation
						JOINT LeftArm
						{
							OFFSET 3.91513 0.00000 0.00000
							CHANNELS 3 Xrotation Yrotation Zrotation
							JOINT LeftForeArm
							{
								OFFSET 6.91491 0.00000 0.00000
								CHANNELS 3 Xrotation Yrotation Zrotation
								JOINT LeftHand
								{
									OFFSET 6.09622 0.00000 0.00000
									CHANNELS 3 Xrotation Yrotation Zrotation
									JOINT LeftHandEnd
									{
										OFFSET 1.74995 0.00000 0.00000
										CHANNELS 3 Xrotation Yrotation Zrotation
										End Site
										{
											OFFSET 1.74995 0.00000 0.00000
										}
									}
									JOINT LeftHandThumb1
									{
										OFFSET 0.69998 -1.16663 -0.46665
										CHANNELS 3 Yrotation Xrotation Zrotation
										End Site
										{
											OFFSET 1.69032 -0.45292 0.00000
										}
									}
								}
							}
						}
					}
				}
			}
		}
	}
	JOINT RightUpLeg
	{
		OFFSET -2.33857 0.00000 -0.68318
		CHANNELS 3 Xrotation Yrotation Zrotation
		JOINT RightLeg
		{
			OFFSET 0.00000 0.00000 -10.74496
			CHANNELS 3 Xrotation Yrotation Zrotation
			JOINT RightFoot
			{
				OFFSET 0.00000 0.00000 -10.93085
				CHANNELS 3 Xrotation Yrotation Zrotation
				JOINT RightToeBase
				{
					OFFSET 0.00000 -4.08727 -1.48765
					CHANNELS 3 Xrotation Yrotation Zrotation
					End Site
					{
						OFFSET 0.00000 -1.89187 -0.00000
					}
				}
			}
		}
	}
	JOINT LeftUpLeg
	{
		OFFSET 2.33857 0.00000 -0.68318
		CHANNELS 3 Xrotation Yrotation Zrotation
		JOINT LeftLeg
		{
			OFFSET 0.00000 0.00000 -10.74496
			CHANNELS 3 Xrotation Yrotation Zrotation
			JOINT LeftFoot
			{
				OFFSET 0.00000 0.00000 -10.93085
				CHANNELS 3 Xrotation Yrotation Zrotation
				JOINT LeftToeBase
				{
					OFFSET 0.00000 -4.08727 -1.48765
					CHANNELS 3 Xrotation Yrotation Zrotation
					End Site
					{
						OFFSET 0.00000 -1.89187 -0.00000
					}
				}
			}
		}
	}
}
MOTION
Frames: 9
Frame Time: 0.008342
 -2.2206 82.4277 23.2712 0.4160 -0.5687 95.3378 9.3880 3.9065 -1.6600 2.7125 0.4007 0.0541 4.0509 -0.8599 1.4684 -3.4638 -1.5170 0.9725 -11.3711 -1.6642 -2.9971 4.6241 -5.5207 -4.1643 7.9515 -17.4453 1.4168 2.8623 -56.2271 -3.7220 -0.0000 0.0001 71.3039 -0.7242 28.2642 11.7715 0.0000 0.0000 -0.0000 0.0000 -0.0000 -0.0000 8.5004 10.7791 2.0168 24.0303 31.9446 -30.5532 -0.0000 -0.0000 -24.1269 -15.0519 -58.9856 -31.8507 -0.0000 0.0000 0.0000 -0.0000 0.0000 -0.0000 -39.0281 -2.7869 -5.7509 97.7526 0.0000 0.0000 -16.3344 5.0214 -10.5282 -3.7692 0.0000 -0.0000 -18.4254 -10.0779 11.4356 39.7826 0.0000 0.0000 -18.8714 7.4341 6.5569 2.1446 0.0000 0.0000
 -2.2741 82.5358 23.2922 0.4540 -0.6352 93.4269 9.3857 3.9814 -1.6865 2.7026 0.3470 0.0548 4.1367 -0.9298 1.6327 -3.4494 -1.5444 0.9995 -11.5115 -1.5799 -2.6321 4.6798 -5.5295 -3.8290 7.8298 -17.3815 1.6319 2.2078 -55.9914 -4.2115 -0.0000 0.0001 71.5553 -0.8532 28.1632 11.6761 0.0000 0.0000 -0.0000 0.0000 0.0000 -0.0000 8.3573 10.7260 1.9409 24.4641 32.5941 -30.5344 -0.0000 -0.0000 -24.1572 -15.0099 -58.9174 -31.5480 0.0000 -0.0000 -0.0000 -0.0000 -0.0000 0.0000 -39.3855 -2.8908 -5.8185 98.2706 0.0000 0.0000 -16.3096 5.0356 -10.5888 -3.8355 0.0000 -0.0000 -17.8373 -9.6100 11.4609 39.3793 0.0000 0.0000 -19.2247 6.5266 8.0544 1.9547 0.0000 0.0000
 -2.3262 82.6378 23.3041 0.4775 -0.7095 91.5871 9.3857 4.0636 -1.7155 2.6900 0.2989 0.0550 4.2492 -1.0083 1.7954 -3.4257 -1.5904 1.0370 -11.6777 -1.5118 -2.3319 4.7612 -5.5371 -3.5230 7.6724 -17.2965 1.8246 1.5783 -55.7768 -4.7121 -0.0000 0.0001 71.8004 -1.0129 28.0603 11.5579 -0.0000 0.0000 -0.0000 0.0000 -0.0000 -0.0000 8.2714 10.5646 1.7857 25.0653 33.3118 -30.6926 -0.0000 -0.0000 -24.2082 -14.8698 -58.8150 -31.1440 -0.0000 0.0000 0.0000 -0.0000 0.0000 0.0000 -39.7166 -3.0694 -5.8263 98.7734 0.0000 0.0000 -16.2710 5.0786 -10.6155 -3.8796 0.0000 -0.0000 -17.3342 -9.1418 11.4321 39.0784 0.0000 0.0000 -19.5948 5.5221 9.5730 1.7502 0.0000 0.0000
 -2.3768 82.7325 23.3075 0.4907 -0.8117 89.8350 9.4094 4.1623 -1.7471 2.6755 0.2678 0.0573 4.3908 -1.1017 1.9334 -3.3932 -1.6620 1.0870 -11.8697 -1.4761 -2.1059 4.8659 -5.5386 -3.2530 7.4797 -17.1981 1.9887 0.9835 -55.5809 -5.2093 -0.0000 0.0001 72.0353 -1.2057 27.9635 11.4226 0.0000 0.0000 -0.0000 0.0000 0.0000 0.0000 8.2565 10.2931 1.5376 25.8715 34.0485 -31.0706 -0.0000 -0.0000 -24.2633 -14.6621 -58.6765 -30.6669 0.0000 -0.0000 -0.0000 0.0000 0.0000 0.0000 -39.9867 -3.3216 -5.7811 99.2529 0.0000 0.0000 -16.2237 5.1770 -10.6268 -3.9066 0.0000 -0.0000 -16.8949 -8.6934 11.4022 38.8855 0.0000 0.0000 -19.9694 4.4539 11.0623 1.5487 0.0000 0.0000
 -2.4270 82.8184 23.3032 0.4848 -0.9310 88.1921 9.4489 4.2774 -1.7830 2.6594 0.2561 0.0597 4.5630 -1.2087 2.0291 -3.3524 -1.7633 1.1434 -12.0859 -1.4945 -1.9645 4.9893 -5.5306 -3.0197 7.2556 -17.1028 2.1237 0.4292 -55.4002 -5.6875 -0.0000 0.0001 72.2527 -1.4251 27.8788 11.2764 0.0000 0.0000 -0.0000 0.0000 -0.0000 -0.0000 8.3163 9.9156 1.1948 26.9108 34.7466 -31.7044 -0.0000 -0.0000 -24.3053 -14.4302 -58.4962 -30.1522 0.0000 -0.0000 0.0000 -0.0000 -0.0000 0.0000 -40.1985 -3.6532 -5.7048 99.6983 0.0000 0.0000 -16.1699 5.3560 -10.6465 -3.9238 0.0000 -0.0000 -16.5384 -8.3055 11.4283 38.8153 0.0000 0.0000 -20.3382 3.3685 12.4495 1.3638 0.0000 0.0000
 -2.4771 82.8949 23.2924 0.4675 -1.0764 86.6757 9.5153 4.4215 -1.8220 2.6420 0.2672 0.0595 4.7659 -1.3292 2.0627 -3.3037 -1.8948 1.1994 -12.3210 -1.5857 -1.9153 5.1251 -5.5124 -2.8259 7.0049 -17.0299 2.2256 -0.0787 -55.2304 -6.1282 -0.0000 0.0001 72.4457 -1.6627 27.8093 11.1258 0.0000 -0.0000 0.0000 -0.0000 0.0000 0.0000 8.4487 9.4432 0.7592 28.1938 35.3451 -32.6153 -0.0000 -0.0000 -24.3174 -14.2089 -58.2675 -29.6344 0.0000 -0.0000 0.0000 -0.0000 0.0000 0.0000 -40.3309 -4.0500 -5.6083 100.0987 0.0000 0.0000 -16.1177 5.6307 -10.6896 -3.9397 0.0000 -0.0000 -16.2471 -7.9991 11.5743 38.8603 0.0000 0.0000 -20.6903 2.3160 13.6584 1.2049 0.0000 0.0000
 -2.5286 82.9610 23.2762 0.4376 -1.2194 85.3065 9.5840 4.5910 -1.8698 2.6226 0.3088 0.0620 4.9974 -1.4625 2.0035 -3.2466 -2.0593 1.2545 -12.5690 -1.7651 -1.9665 5.2672 -5.4858 -2.6699 6.7332 -16.9951 2.2928 -0.5398 -55.0762 -6.5163 -0.0000 0.0001 72.6040 -1.9023 27.7561 10.9782 0.0000 -0.0000 0.0000 0.0000 -0.0000 0.0000 8.6578 8.8995 0.2525 29.7104 35.7595 -33.8286 -0.0000 -0.0000 -24.2748 -14.0451 -57.9823 -29.1484 0.0000 -0.0000 0.0000 0.0000 -0.0000 0.0000 -40.4110 -4.5037 -5.5152 100.4446 0.0000 0.0000 -16.0691 6.0055 -10.7730 -3.9621 0.0000 -0.0000 -16.0504 -7.8075 11.8891 39.0212 0.0000 0.0000 -21.0211 1.3473 14.6103 1.0763 0.0000 0.0000
 -2.5811 83.0161 23.2565 0.3897 -1.3810 84.0989 9.6782 4.7841 -1.9210 2.6014 0.3781 0.0617 5.2537 -1.6072 1.8390 -3.1809 -2.2520 1.2964 -12.8191 -2.0438 -2.1209 5.4092 -5.4575 -2.5554 6.4459 -17.0207 2.3197 -0.9482 -54.9333 -6.8362 -0.0000 0.0001 72.7258 -2.1333 27.7171 10.8349 -0.0000 -0.0000 -0.0000 -0.0000 -0.0000 -0.0000 8.9136 8.2956 -0.3199 31.4270 35.9620 -35.3006 -0.0000 -0.0000 -24.1752 -13.9451 -57.6253 -28.7197 -0.0000 0.0000 0.0000 0.0000 -0.0000 0.0000 -40.4039 -5.0052 -5.4462 100.7178 0.0000 0.0000 -16.0297 6.4710 -10.9048 -3.9981 0.0000 -0.0000 -15.9061 -7.7580 12.4110 39.2758 0.0000 0.0000 -21.3290 0.5074 15.2383 0.9762 0.0000 0.0000
 -2.6353 83.0612 23.2346 0.3543 -1.5388 83.0619 9.7778 5.0208 -1.9798 2.5778 0.4766 0.0587 5.5269 -1.7620 1.5518 -3.1054 -2.4668 1.3207 -13.0607 -2.4254 -2.3833 5.5483 -5.4352 -2.4802 6.1470 -17.1121 2.3007 -1.3017 -54.8167 -7.0769 -0.0000 0.0001 72.8055 -2.3372 27.6876 10.6979 0.0000 -0.0000 0.0000 -0.0000 -0.0000 0.0000 9.2169 7.6627 -0.9249 33.2821 35.8827 -37.0075 -0.0000 -0.0000 -24.0034 -13.9372 -57.1917 -28.3733 0.0000 -0.0000 0.0000 0.0000 -0.0000 0.0000 -40.3407 -5.5121 -5.3971 100.9229 0.0000 0.0000 -16.0056 7.0025 -11.0803 -4.0527 0.0000 -0.0000 -15.8215 -7.8290 13.1545 39.5958 0.0000 0.0000 -21.6060 -0.1786 15.5114 0.9012 0.0000 0.0000
